<!-- Uploaded to: SVG Repo, www.svgrepo.com, Generator: SVG Repo Mixer Tools -->
<svg width="90px" height="90px" viewBox="0 0 32 32" enable-background="new 0 0 32 32" id="_x3C_Layer_x3E_" version="1.1" xml:space="preserve" xmlns="http://www.w3.org/2000/svg" xmlns:xlink="http://www.w3.org/1999/xlink">

<g id="helicopter_tech_x2C__helicopter_x2C__flight_1_">

<g id="XMLID_2114_">

<path d="    M27.318,8.983l-6.928,5.163c0.568,1.56,0.452,3.198-0.203,4.586c-0.642,1.394-1.822,2.536-3.383,3.104l-9.396,3.42    c-0.517,0.188-1.094-0.081-1.281-0.598c-0.944-2.594-0.747-5.325,0.334-7.646c1.083-2.32,3.049-4.228,5.643-5.172l4.313-1.569    c0.847-0.308,1.786-0.268,2.607,0.115l7.578-2.758" fill="none" id="XMLID_2115_" stroke="#e20707" stroke-linecap="round" stroke-linejoin="round" stroke-miterlimit="10"/>

<path d="    M26.712,8.121c0.376,1.033,1.53,1.571,2.563,1.195s1.571-1.53,1.195-2.563s-1.53-1.571-2.563-1.195S26.336,7.088,26.712,8.121z" fill="none" id="XMLID_2116_" stroke="#e20707" stroke-linecap="round" stroke-linejoin="round" stroke-miterlimit="10"/>

<line fill="none" id="XMLID_2117_" stroke="#e20707" stroke-linecap="round" stroke-linejoin="round" stroke-miterlimit="10" x1="1.681" x2="12.017" y1="12.443" y2="8.681"/>

<line fill="none" id="XMLID_2118_" stroke="#e20707" stroke-linecap="round" stroke-linejoin="round" stroke-miterlimit="10" x1="13.896" x2="26.112" y1="7.997" y2="3.551"/>

<line fill="none" id="XMLID_2119_" stroke="#e20707" stroke-linecap="round" stroke-linejoin="round" stroke-miterlimit="10" x1="14.238" x2="13.571" y1="8.937" y2="7.104"/>

<path d="    M13.982,11.158l1.88-0.685L15.52,9.534c-0.188-0.52-0.762-0.786-1.281-0.598l0,0c-0.52,0.189-0.787,0.763-0.598,1.282    L13.982,11.158z" fill="none" id="XMLID_2120_" stroke="#e20707" stroke-linecap="round" stroke-linejoin="round" stroke-miterlimit="10"/>

<path d="    M11.637,12.028l0.865,3.394c0.628,2.484-0.726,5.053-3.132,5.929l-3.684,1.341" fill="none" id="XMLID_2121_" stroke="#e20707" stroke-linecap="round" stroke-linejoin="round" stroke-miterlimit="10"/>

<line fill="none" id="XMLID_2122_" stroke="#e20707" stroke-linecap="round" stroke-linejoin="round" stroke-miterlimit="10" x1="28.591" x2="28.497" y1="7.438" y2="7.472"/>

<path d="    M22.529,22.945l-15.12,5.54c-0.902,0.331-1.905-0.103-2.284-0.985l0,0" fill="none" id="XMLID_2123_" stroke="#e20707" stroke-linecap="round" stroke-linejoin="round" stroke-miterlimit="10"/>

<path d="    M20.65,23.63l-0.342-0.939c-0.378-1.038-1.526-1.573-2.563-1.195l-3.172,1.154l-4.346,1.581c-1.038,0.378-1.573,1.526-1.195,2.563    l0.342,0.94" fill="none" id="XMLID_2124_" stroke="#e20707" stroke-linecap="round" stroke-linejoin="round" stroke-miterlimit="10"/>

<path d="    M26.115,15.256" fill="none" id="XMLID_2125_" stroke="#e20707" stroke-linecap="round" stroke-linejoin="round" stroke-miterlimit="10"/>

<line fill="none" id="XMLID_3290_" stroke="#e20707" stroke-linecap="round" stroke-linejoin="round" stroke-miterlimit="10" x1="20.391" x2="19.878" y1="14.146" y2="12.737"/>

<line fill="none" id="XMLID_2126_" stroke="#e20707" stroke-linecap="round" stroke-linejoin="round" stroke-miterlimit="10" x1="15.438" x2="17.316" y1="18.078" y2="17.394"/>

<g id="XMLID_2127_">

<line fill="none" id="XMLID_2128_" stroke="#263238" stroke-linecap="round" stroke-linejoin="round" stroke-miterlimit="10" x1="23.551" x2="28.551" y1="20.5" y2="20.5"/>

<line fill="none" id="XMLID_2129_" stroke="#263238" stroke-linecap="round" stroke-linejoin="round" stroke-miterlimit="10" x1="22.551" x2="30.551" y1="26.5" y2="26.5"/>

<line fill="none" id="XMLID_2130_" stroke="#263238" stroke-linecap="round" stroke-linejoin="round" stroke-miterlimit="10" x1="24.551" x2="15.551" y1="28.5" y2="28.5"/>

<line fill="none" id="XMLID_2131_" stroke="#263238" stroke-linecap="round" stroke-linejoin="round" stroke-miterlimit="10" x1="27.551" x2="26.551" y1="28.5" y2="28.5"/>

</g>

</g>

</g>

</svg>