<svg version="1.0" xmlns="http://www.w3.org/2000/svg"
 width="89px" height="89px" viewBox="0 0 512.000000 512.000000"
 preserveAspectRatio="xMidYMid meet">

<g transform="translate(0.000000,512.000000) scale(0.100000,-0.100000)"
fill="#e20707" stroke="none">
<path d="M2350 4003 c-221 -10 -510 -51 -725 -103 -206 -49 -462 -135 -497
-166 -39 -36 -6 -124 46 -124 9 0 90 24 179 54 190 64 311 96 499 130 383 71
824 82 1223 30 582 -75 1114 -285 1538 -606 93 -70 285 -253 328 -312 44 -59
35 -116 -23 -150 -52 -32 -79 -17 -202 107 -418 427 -1001 687 -1746 779 -65
8 -220 13 -410 13 -190 0 -345 -5 -410 -13 -579 -72 -1039 -237 -1441 -519
-124 -86 -282 -224 -357 -310 -58 -68 -93 -83 -143 -63 -33 14 -59 55 -59 93
0 35 43 88 166 207 160 155 348 292 552 402 94 51 112 68 112 110 0 41 -27 68
-67 68 -56 0 -292 -139 -483 -282 -203 -154 -387 -345 -416 -432 -69 -207 150
-396 345 -297 22 12 43 21 46 21 3 0 4 -309 3 -687 l-3 -688 -182 -3 -182 -2
-20 -27 c-26 -32 -27 -64 -2 -94 l19 -24 2522 0 2522 0 19 24 c25 30 24 62 -2
94 l-20 27 -182 2 -182 3 -3 212 -2 212 -27 20 c-35 28 -59 26 -94 -8 l-29
-29 0 -206 0 -206 -135 0 -135 0 0 643 c0 727 1 713 -71 786 -75 75 -25 72
-1108 69 l-963 -3 -19 -24 c-22 -28 -25 -69 -5 -97 14 -19 39 -19 990 -24
l975 -5 23 -23 23 -23 0 -647 0 -647 -747 -3 -748 -2 0 79 0 78 46 7 c98 13
179 67 220 147 l24 49 65 0 65 0 0 -31 c0 -42 14 -64 49 -78 24 -10 34 -10 59
3 33 17 42 34 42 77 l0 30 73 -3 72 -3 3 -36 c4 -44 32 -72 72 -72 40 0 69 28
76 75 l7 38 149 0 c86 0 158 4 169 11 48 25 44 105 -7 128 -17 8 -159 11 -464
11 -389 0 -440 2 -440 15 0 31 -49 111 -97 157 -26 26 -73 58 -103 72 l-55 26
76 0 c94 0 129 21 129 76 0 60 -25 74 -134 74 l-93 0 -6 51 c-8 65 -29 89 -77
89 -48 0 -69 -24 -77 -89 l-6 -51 -93 0 c-109 0 -134 -14 -134 -74 0 -55 35
-76 129 -76 l76 0 -52 -25 c-92 -42 -203 -168 -203 -230 0 -13 -51 -15 -440
-15 -305 0 -447 -3 -464 -11 -51 -23 -55 -103 -7 -128 11 -7 83 -11 169 -11
l149 0 7 -38 c7 -47 36 -75 76 -75 40 0 68 28 72 72 l3 36 73 3 72 3 0 -31 c0
-43 14 -65 49 -79 24 -10 34 -10 59 3 33 17 42 34 42 77 l0 29 65 0 65 0 24
-49 c41 -80 122 -134 220 -147 l46 -7 0 -78 0 -79 -747 2 -748 3 0 647 0 647
23 23 23 23 444 3 444 3 21 26 c27 35 25 59 -9 94 l-29 29 -429 0 c-490 0
-502 -2 -572 -71 -72 -73 -71 -59 -71 -786 l0 -643 -135 0 -135 0 0 774 0 774
54 49 c233 213 573 397 951 513 597 184 1341 188 1960 10 366 -106 742 -305
972 -514 l62 -57 3 -445 3 -446 24 -19 c30 -25 76 -24 101 1 19 19 20 33 20
380 0 198 2 360 5 360 3 0 23 -9 44 -20 196 -100 416 88 347 296 -31 94 -227
292 -454 460 -603 444 -1425 668 -2302 627z m281 -2115 c49 -14 111 -67 133
-112 20 -43 21 -125 1 -153 -55 -79 -355 -79 -410 0 -8 12 -15 43 -15 70 0
141 146 239 291 195z"/>
</g>
</svg>
